<svg xmlns="http://www.w3.org/2000/svg" width="1280" height="720" viewBox="0 0 1280 720">
  <g id="bg">
    <rect x="0" y="0" width="1280" height="720" fill="#FFFFFF"/>
  </g>
  <g id="p09-header">
    <rect x="72" y="56" width="6" height="34" fill="#1565C0"/>
    <text x="92" y="84" font-family="SimHei, &quot;Microsoft YaHei&quot;, Arial, sans-serif" font-size="30" font-weight="bold" fill="#1A2230">按人分工 · 卡点（上）</text>
    <text x="1208" y="82" text-anchor="end" font-family="&quot;Microsoft YaHei&quot;, &quot;PingFang SC&quot;, Arial, sans-serif" font-size="14" fill="#93A0B0">资料 / 平台配置 / 云端</text>
    <line x1="72" y1="108" x2="1208" y2="108" stroke="#E5EAF0" stroke-width="1"/>
  </g>
  <g id="card-wu">
    <rect x="72" y="150" width="362" height="500" fill="#F4F7FB"/>
    <rect x="72" y="150" width="362" height="4" fill="#1565C0"/>
    <use data-icon="tabler-outline/users" x="100" y="178" width="36" height="36" fill="#1565C0" stroke-width="2"/>
    <text x="148" y="206" font-family="SimHei, &quot;Microsoft YaHei&quot;, Arial, sans-serif" font-size="24" font-weight="bold" fill="#1A2230">吴彤彤</text>
    <text x="100" y="244" font-family="SimHei, &quot;Microsoft YaHei&quot;, Arial, sans-serif" font-size="16" fill="#1565C0">客户资料 + 上线总控</text>
    <line x1="100" y1="266" x2="406" y2="266" stroke="#E5EAF0" stroke-width="1"/>
    <text x="100" y="300" font-family="SimHei, &quot;Microsoft YaHei&quot;, Arial, sans-serif" font-size="14" fill="#93A0B0">关键卡点</text>
    <rect x="100" y="328" width="8" height="8" fill="#1565C0"/>
    <text x="120" y="338" font-family="&quot;Microsoft YaHei&quot;, &quot;PingFang SC&quot;, Arial, sans-serif" font-size="16" fill="#1A2230">收齐正式资料：AppID / 云空间 /<tspan x="120" dy="26">商户号 / 域名 / 客服 / Logo / 政策</tspan></text>
    <rect x="100" y="424" width="8" height="8" fill="#1565C0"/>
    <text x="120" y="434" font-family="&quot;Microsoft YaHei&quot;, &quot;PingFang SC&quot;, Arial, sans-serif" font-size="16" fill="#1A2230">确认权威客服热线号<tspan x="120" dy="26">（暂用 0757-85775667）</tspan></text>
    <rect x="100" y="520" width="8" height="8" fill="#1565C0"/>
    <text x="120" y="530" font-family="&quot;Microsoft YaHei&quot;, &quot;PingFang SC&quot;, Arial, sans-serif" font-size="16" fill="#1A2230">组织每日进度同步，跟踪<tspan x="120" dy="26">支付 / 订阅 / URL / 索引 / 真机</tspan></text>
  </g>
  <g id="card-chen">
    <rect x="458" y="150" width="362" height="500" fill="#F4F7FB"/>
    <rect x="458" y="150" width="362" height="4" fill="#1565C0"/>
    <use data-icon="tabler-outline/bell" x="486" y="178" width="36" height="36" fill="#1565C0" stroke-width="2"/>
    <text x="534" y="206" font-family="SimHei, &quot;Microsoft YaHei&quot;, Arial, sans-serif" font-size="24" font-weight="bold" fill="#1A2230">陈莎</text>
    <text x="486" y="244" font-family="SimHei, &quot;Microsoft YaHei&quot;, Arial, sans-serif" font-size="16" fill="#1565C0">微信平台 / 支付 / 订阅</text>
    <line x1="486" y1="266" x2="792" y2="266" stroke="#E5EAF0" stroke-width="1"/>
    <text x="486" y="300" font-family="SimHei, &quot;Microsoft YaHei&quot;, Arial, sans-serif" font-size="14" fill="#93A0B0">关键卡点</text>
    <rect x="486" y="328" width="8" height="8" fill="#1565C0"/>
    <text x="506" y="338" font-family="&quot;Microsoft YaHei&quot;, &quot;PingFang SC&quot;, Arial, sans-serif" font-size="16" fill="#1A2230">配置合法域名<tspan x="506" dy="26">request / upload / download</tspan></text>
    <rect x="486" y="424" width="8" height="8" fill="#1565C0"/>
    <text x="506" y="434" font-family="&quot;Microsoft YaHei&quot;, &quot;PingFang SC&quot;, Arial, sans-serif" font-size="16" fill="#1A2230">申请订阅模板 ID（报修 / 签收 /<tspan x="506" dy="26">报价 / 付款 / 发货 / 完成 / 回访）</tspan></text>
    <rect x="486" y="520" width="8" height="8" fill="#1565C0"/>
    <text x="506" y="530" font-family="&quot;Microsoft YaHei&quot;, &quot;PingFang SC&quot;, Arial, sans-serif" font-size="16" fill="#1A2230">微信支付商户号 / 证书 /<tspan x="506" dy="26">APIv3 / 回调 URL（WX_PAY_*）</tspan></text>
  </g>
  <g id="card-su">
    <rect x="844" y="150" width="362" height="500" fill="#F4F7FB"/>
    <rect x="844" y="150" width="362" height="4" fill="#1565C0"/>
    <use data-icon="tabler-outline/database" x="872" y="178" width="36" height="36" fill="#1565C0" stroke-width="2"/>
    <text x="920" y="206" font-family="SimHei, &quot;Microsoft YaHei&quot;, Arial, sans-serif" font-size="24" font-weight="bold" fill="#1A2230">苏凤冰</text>
    <text x="872" y="244" font-family="SimHei, &quot;Microsoft YaHei&quot;, Arial, sans-serif" font-size="16" fill="#1565C0">uniCloud / 数据库 / 云函数</text>
    <line x1="872" y1="266" x2="1178" y2="266" stroke="#E5EAF0" stroke-width="1"/>
    <text x="872" y="300" font-family="SimHei, &quot;Microsoft YaHei&quot;, Arial, sans-serif" font-size="14" fill="#93A0B0">关键卡点</text>
    <rect x="872" y="328" width="8" height="8" fill="#1565C0"/>
    <text x="892" y="338" font-family="&quot;Microsoft YaHei&quot;, &quot;PingFang SC&quot;, Arial, sans-serif" font-size="16" fill="#1A2230">创建 / 接入客户正式云空间<tspan x="892" dy="26">（当前在开发云）</tspan></text>
    <rect x="872" y="424" width="8" height="8" fill="#1565C0"/>
    <text x="892" y="434" font-family="&quot;Microsoft YaHei&quot;, &quot;PingFang SC&quot;, Arial, sans-serif" font-size="16" fill="#1A2230">重部署 7 个云函数<tspan x="892" dy="26">（含合规整改 5 个）</tspan></text>
    <rect x="872" y="520" width="8" height="8" fill="#1565C0"/>
    <text x="892" y="530" font-family="&quot;Microsoft YaHei&quot;, &quot;PingFang SC&quot;, Arial, sans-serif" font-size="16" fill="#1A2230">创建集合 / schema / 索引<tspan x="892" dy="26">（order_no 唯一、sn 清洗）</tspan></text>
  </g>
  <g id="p09-footer">
    <text x="72" y="702" font-family="&quot;Microsoft YaHei&quot;, &quot;PingFang SC&quot;, Arial, sans-serif" font-size="11" fill="#93A0B0">牙医仪器检修小程序 · 项目进度汇报</text>
    <text x="1208" y="702" text-anchor="end" font-family="&quot;Microsoft YaHei&quot;, &quot;PingFang SC&quot;, Arial, sans-serif" font-size="11" fill="#93A0B0">2026-06-22 · P09 / 12</text>
  </g>
</svg>
