<svg xmlns="http://www.w3.org/2000/svg" width="1280" height="720" viewBox="0 0 1280 720">
  <g id="bg">
    <rect x="0" y="0" width="1280" height="720" fill="#FFFFFF"/>
  </g>
  <g id="p10-header">
    <rect x="72" y="56" width="6" height="34" fill="#1565C0"/>
    <text x="92" y="84" font-family="SimHei, &quot;Microsoft YaHei&quot;, Arial, sans-serif" font-size="30" font-weight="bold" fill="#1A2230">按人分工 · 卡点（下）</text>
    <text x="1208" y="82" text-anchor="end" font-family="&quot;Microsoft YaHei&quot;, &quot;PingFang SC&quot;, Arial, sans-serif" font-size="14" fill="#93A0B0">真机 / 后台 / 全流程验收</text>
    <line x1="72" y1="108" x2="1208" y2="108" stroke="#E5EAF0" stroke-width="1"/>
  </g>
  <g id="card-zheng">
    <rect x="72" y="150" width="362" height="500" fill="#F4F7FB"/>
    <rect x="72" y="150" width="362" height="4" fill="#1565C0"/>
    <use data-icon="tabler-outline/code" x="100" y="178" width="36" height="36" fill="#1565C0" stroke-width="2"/>
    <text x="148" y="206" font-family="SimHei, &quot;Microsoft YaHei&quot;, Arial, sans-serif" font-size="24" font-weight="bold" fill="#1A2230">郑佳华</text>
    <text x="100" y="244" font-family="SimHei, &quot;Microsoft YaHei&quot;, Arial, sans-serif" font-size="16" fill="#1565C0">小程序端 / 真机闭环</text>
    <line x1="100" y1="266" x2="406" y2="266" stroke="#E5EAF0" stroke-width="1"/>
    <text x="100" y="300" font-family="SimHei, &quot;Microsoft YaHei&quot;, Arial, sans-serif" font-size="14" fill="#93A0B0">关键卡点</text>
    <rect x="100" y="328" width="8" height="8" fill="#1565C0"/>
    <text x="120" y="338" font-family="&quot;Microsoft YaHei&quot;, &quot;PingFang SC&quot;, Arial, sans-serif" font-size="16" fill="#1A2230">manifest 用正式 AppID 且无密钥<tspan x="120" dy="26">（待确认是否客户正式主体）</tspan></text>
    <rect x="100" y="424" width="8" height="8" fill="#1565C0"/>
    <text x="120" y="434" font-family="&quot;Microsoft YaHei&quot;, &quot;PingFang SC&quot;, Arial, sans-serif" font-size="16" fill="#1A2230">构建体验版（二维码 + 版本号）<tspan x="120" dy="26">并连正式环境</tspan></text>
    <rect x="100" y="520" width="8" height="8" fill="#1565C0"/>
    <text x="120" y="530" font-family="&quot;Microsoft YaHei&quot;, &quot;PingFang SC&quot;, Arial, sans-serif" font-size="16" fill="#1A2230">真机跑客户主流程<tspan x="120" dy="26">（登录 → … → 评价）</tspan></text>
  </g>
  <g id="card-cai">
    <rect x="458" y="150" width="362" height="500" fill="#F4F7FB"/>
    <rect x="458" y="150" width="362" height="4" fill="#1565C0"/>
    <use data-icon="tabler-outline/cloud" x="486" y="178" width="36" height="36" fill="#1565C0" stroke-width="2"/>
    <text x="534" y="206" font-family="SimHei, &quot;Microsoft YaHei&quot;, Arial, sans-serif" font-size="24" font-weight="bold" fill="#1A2230">蔡珠琪</text>
    <text x="486" y="244" font-family="SimHei, &quot;Microsoft YaHei&quot;, Arial, sans-serif" font-size="16" fill="#1565C0">PC 后台部署 / 验收</text>
    <line x1="486" y1="266" x2="792" y2="266" stroke="#E5EAF0" stroke-width="1"/>
    <text x="486" y="300" font-family="SimHei, &quot;Microsoft YaHei&quot;, Arial, sans-serif" font-size="14" fill="#93A0B0">关键卡点</text>
    <rect x="486" y="328" width="8" height="8" fill="#1565C0"/>
    <text x="506" y="338" font-family="&quot;Microsoft YaHei&quot;, &quot;PingFang SC&quot;, Arial, sans-serif" font-size="16" fill="#1A2230">配置 PC 正式 VITE_* URL<tspan x="506" dy="26">+ 生产构建</tspan></text>
    <rect x="486" y="424" width="8" height="8" fill="#1565C0"/>
    <text x="506" y="434" font-family="&quot;Microsoft YaHei&quot;, &quot;PingFang SC&quot;, Arial, sans-serif" font-size="16" fill="#1A2230">部署正式域名 + HTTPS</text>
    <rect x="486" y="520" width="8" height="8" fill="#1565C0"/>
    <text x="506" y="530" font-family="&quot;Microsoft YaHei&quot;, &quot;PingFang SC&quot;, Arial, sans-serif" font-size="16" fill="#1A2230">验收后台核心业务（工单 / 报价 /<tspan x="506" dy="26">库存 / 结算 / 发票 / 审计 / 统计）</tspan></text>
  </g>
  <g id="card-zhong">
    <rect x="844" y="150" width="362" height="500" fill="#F4F7FB"/>
    <rect x="844" y="150" width="362" height="4" fill="#1565C0"/>
    <use data-icon="tabler-outline/clipboard-check" x="872" y="178" width="36" height="36" fill="#1565C0" stroke-width="2"/>
    <text x="920" y="206" font-family="SimHei, &quot;Microsoft YaHei&quot;, Arial, sans-serif" font-size="24" font-weight="bold" fill="#1A2230">钟浩霆</text>
    <text x="872" y="244" font-family="SimHei, &quot;Microsoft YaHei&quot;, Arial, sans-serif" font-size="16" fill="#1565C0">资料核对 / 全流程验收</text>
    <line x1="872" y1="266" x2="1178" y2="266" stroke="#E5EAF0" stroke-width="1"/>
    <text x="872" y="300" font-family="SimHei, &quot;Microsoft YaHei&quot;, Arial, sans-serif" font-size="14" fill="#93A0B0">关键卡点</text>
    <rect x="872" y="328" width="8" height="8" fill="#1565C0"/>
    <text x="892" y="338" font-family="&quot;Microsoft YaHei&quot;, &quot;PingFang SC&quot;, Arial, sans-serif" font-size="16" fill="#1A2230">核对客户可见资料（电话 / 微信 /<tspan x="892" dy="26">二维码 / Logo / 政策）</tspan></text>
    <rect x="872" y="424" width="8" height="8" fill="#1565C0"/>
    <text x="892" y="434" font-family="&quot;Microsoft YaHei&quot;, &quot;PingFang SC&quot;, Arial, sans-serif" font-size="16" fill="#1A2230">真实业务跑完整闭环<tspan x="892" dy="26">+ 建立问题清单</tspan></text>
    <rect x="872" y="520" width="8" height="8" fill="#1565C0"/>
    <text x="892" y="530" font-family="&quot;Microsoft YaHei&quot;, &quot;PingFang SC&quot;, Arial, sans-serif" font-size="16" fill="#1A2230">最终复验（阻塞清零）<tspan x="892" dy="26">+ 给出最终上线建议</tspan></text>
  </g>
  <g id="p10-footer">
    <text x="72" y="702" font-family="&quot;Microsoft YaHei&quot;, &quot;PingFang SC&quot;, Arial, sans-serif" font-size="11" fill="#93A0B0">牙医仪器检修小程序 · 项目进度汇报</text>
    <text x="1208" y="702" text-anchor="end" font-family="&quot;Microsoft YaHei&quot;, &quot;PingFang SC&quot;, Arial, sans-serif" font-size="11" fill="#93A0B0">2026-06-22 · P10 / 12</text>
  </g>
</svg>
