<svg xmlns="http://www.w3.org/2000/svg" width="1280" height="720" viewBox="0 0 1280 720">
  <g id="bg">
    <rect x="0" y="0" width="1280" height="720" fill="#FFFFFF"/>
  </g>
  <g id="p02-header">
    <rect x="72" y="56" width="6" height="34" fill="#1565C0"/>
    <text x="92" y="84" font-family="SimHei, &quot;Microsoft YaHei&quot;, Arial, sans-serif" font-size="30" font-weight="bold" fill="#1A2230">进度仪表盘</text>
    <text x="1208" y="82" text-anchor="end" font-family="&quot;Microsoft YaHei&quot;, &quot;PingFang SC&quot;, Arial, sans-serif" font-size="14" fill="#93A0B0">关键指标 · 截至 2026-06-22</text>
    <line x1="72" y1="108" x2="1208" y2="108" stroke="#E5EAF0" stroke-width="1"/>
  </g>
  <g id="kpi-code">
    <rect x="72" y="150" width="548" height="230" fill="#F4F7FB"/>
    <rect x="72" y="150" width="5" height="230" fill="#2E7D32"/>
    <!-- icon: tabler-outline/code -->
  <g transform="translate(106, 184) scale(1.66667)" fill="none" stroke="#2E7D32" stroke-width="2">
    <path d="M7 8l-4 4l4 4" />
    <path d="M17 8l4 4l-4 4" />
    <path d="M14 4l-4 16" />
  </g>
    <text x="160" y="212" font-family="SimHei, &quot;Microsoft YaHei&quot;, Arial, sans-serif" font-size="21" font-weight="bold" fill="#1A2230">代码功能完成度</text>
    <text x="106" y="312" font-family="SimHei, &quot;Microsoft YaHei&quot;, Arial, sans-serif" font-size="56" font-weight="bold" fill="#2E7D32">95%</text>
    <text x="106" y="352" font-family="&quot;Microsoft YaHei&quot;, &quot;PingFang SC&quot;, Arial, sans-serif" font-size="16" fill="#5A6675">16 / 16 主流程已实现，含合规整改</text>
  </g>
  <g id="kpi-func">
    <rect x="660" y="150" width="548" height="230" fill="#F4F7FB"/>
    <rect x="660" y="150" width="5" height="230" fill="#1565C0"/>
    <!-- icon: tabler-outline/server -->
  <g transform="translate(694, 184) scale(1.66667)" fill="none" stroke="#1565C0" stroke-width="2">
    <path d="M3 7a3 3 0 0 1 3 -3h12a3 3 0 0 1 3 3v2a3 3 0 0 1 -3 3h-12a3 3 0 0 1 -3 -3" />
    <path d="M3 15a3 3 0 0 1 3 -3h12a3 3 0 0 1 3 3v2a3 3 0 0 1 -3 3h-12a3 3 0 0 1 -3 -3l0 -2" />
    <path d="M7 8l0 .01" />
    <path d="M7 16l0 .01" />
  </g>
    <text x="748" y="212" font-family="SimHei, &quot;Microsoft YaHei&quot;, Arial, sans-serif" font-size="21" font-weight="bold" fill="#1A2230">后端云函数</text>
    <text x="694" y="312" font-family="SimHei, &quot;Microsoft YaHei&quot;, Arial, sans-serif" font-size="56" font-weight="bold" fill="#1565C0">7 个</text>
    <text x="694" y="352" font-family="&quot;Microsoft YaHei&quot;, &quot;PingFang SC&quot;, Arial, sans-serif" font-size="16" fill="#5A6675">代码就绪；5 个需按整改重部署到正式</text>
  </g>
  <g id="kpi-gate">
    <rect x="72" y="420" width="548" height="230" fill="#F4F7FB"/>
    <rect x="72" y="420" width="5" height="230" fill="#D32F2F"/>
    <!-- icon: tabler-outline/gauge -->
  <g transform="translate(106, 454) scale(1.66667)" fill="none" stroke="#D32F2F" stroke-width="2">
    <path d="M3 12a9 9 0 1 0 18 0a9 9 0 1 0 -18 0" />
    <path d="M11 12a1 1 0 1 0 2 0a1 1 0 1 0 -2 0" />
    <path d="M13.41 10.59l2.59 -2.59" />
    <path d="M7 12a5 5 0 0 1 5 -5" />
  </g>
    <text x="160" y="482" font-family="SimHei, &quot;Microsoft YaHei&quot;, Arial, sans-serif" font-size="21" font-weight="bold" fill="#1A2230">最低上线门槛</text>
    <text x="106" y="582" font-family="SimHei, &quot;Microsoft YaHei&quot;, Arial, sans-serif" font-size="56" font-weight="bold" fill="#D32F2F">0 / 12</text>
    <text x="106" y="622" font-family="&quot;Microsoft YaHei&quot;, &quot;PingFang SC&quot;, Arial, sans-serif" font-size="16" fill="#5A6675">代码就绪 8 项，均卡在部署 / 配置 / 验收</text>
  </g>
  <g id="kpi-block">
    <rect x="660" y="420" width="548" height="230" fill="#F4F7FB"/>
    <rect x="660" y="420" width="5" height="230" fill="#D32F2F"/>
    <!-- icon: tabler-outline/alert-triangle -->
  <g transform="translate(694, 454) scale(1.66667)" fill="none" stroke="#D32F2F" stroke-width="2">
    <path d="M12 9v4" />
    <path d="M10.363 3.591l-8.106 13.534a1.914 1.914 0 0 0 1.636 2.871h16.214a1.914 1.914 0 0 0 1.636 -2.87l-8.106 -13.536a1.914 1.914 0 0 0 -3.274 0" />
    <path d="M12 16h.01" />
  </g>
    <text x="748" y="482" font-family="SimHei, &quot;Microsoft YaHei&quot;, Arial, sans-serif" font-size="21" font-weight="bold" fill="#1A2230">发布阻断项</text>
    <text x="694" y="582" font-family="SimHei, &quot;Microsoft YaHei&quot;, Arial, sans-serif" font-size="56" font-weight="bold" fill="#D32F2F">1</text>
    <text x="694" y="622" font-family="&quot;Microsoft YaHei&quot;, &quot;PingFang SC&quot;, Arial, sans-serif" font-size="16" fill="#5A6675">医疗器械类目审核未通过，发布前置</text>
  </g>
  <g id="p02-footer">
    <text x="72" y="702" font-family="&quot;Microsoft YaHei&quot;, &quot;PingFang SC&quot;, Arial, sans-serif" font-size="11" fill="#93A0B0">牙医仪器检修小程序 · 项目进度汇报</text>
    <text x="1208" y="702" text-anchor="end" font-family="&quot;Microsoft YaHei&quot;, &quot;PingFang SC&quot;, Arial, sans-serif" font-size="11" fill="#93A0B0">2026-06-22 · P02 / 12</text>
  </g>
</svg>
