<svg xmlns="http://www.w3.org/2000/svg" width="1280" height="720" viewBox="0 0 1280 720">
  <g id="bg">
    <rect x="0" y="0" width="1280" height="720" fill="#FFFFFF"/>
  </g>
  <g id="p05-header">
    <rect x="72" y="56" width="6" height="34" fill="#1565C0"/>
    <text x="92" y="84" font-family="SimHei, &quot;Microsoft YaHei&quot;, Arial, sans-serif" font-size="30" font-weight="bold" fill="#1A2230">客户端功能完成度</text>
    <text x="372" y="84" font-family="SimHei, &quot;Microsoft YaHei&quot;, Arial, sans-serif" font-size="30" font-weight="bold" fill="#2E7D32">16 / 16</text>
    <text x="1208" y="82" text-anchor="end" font-family="&quot;Microsoft YaHei&quot;, &quot;PingFang SC&quot;, Arial, sans-serif" font-size="14" fill="#93A0B0">主流程功能全部已实现</text>
    <line x1="72" y1="108" x2="1208" y2="108" stroke="#E5EAF0" stroke-width="1"/>
  </g>
  <g id="func-row-1">
    <rect x="72" y="150" width="272" height="113" fill="#F4F7FB"/>
    <!-- icon: tabler-outline/circle-check -->
  <g transform="translate(90, 172) scale(0.916667)" fill="none" stroke="#2E7D32" stroke-width="2">
    <path d="M3 12a9 9 0 1 0 18 0a9 9 0 1 0 -18 0" />
    <path d="M9 12l2 2l4 -4" />
  </g>
    <text x="120" y="189" font-family="SimHei, &quot;Microsoft YaHei&quot;, Arial, sans-serif" font-size="15" font-weight="bold" fill="#93A0B0">01</text>
    <text x="90" y="232" font-family="&quot;Microsoft YaHei&quot;, &quot;PingFang SC&quot;, Arial, sans-serif" font-size="17" fill="#1A2230">手机验证码登录</text>
    <rect x="360" y="150" width="272" height="113" fill="#F4F7FB"/>
    <!-- icon: tabler-outline/circle-check -->
  <g transform="translate(378, 172) scale(0.916667)" fill="none" stroke="#2E7D32" stroke-width="2">
    <path d="M3 12a9 9 0 1 0 18 0a9 9 0 1 0 -18 0" />
    <path d="M9 12l2 2l4 -4" />
  </g>
    <text x="408" y="189" font-family="SimHei, &quot;Microsoft YaHei&quot;, Arial, sans-serif" font-size="15" font-weight="bold" fill="#93A0B0">02</text>
    <text x="378" y="232" font-family="&quot;Microsoft YaHei&quot;, &quot;PingFang SC&quot;, Arial, sans-serif" font-size="17" fill="#1A2230">拒绝授权可恢复</text>
    <rect x="648" y="150" width="272" height="113" fill="#F4F7FB"/>
    <!-- icon: tabler-outline/circle-check -->
  <g transform="translate(666, 172) scale(0.916667)" fill="none" stroke="#2E7D32" stroke-width="2">
    <path d="M3 12a9 9 0 1 0 18 0a9 9 0 1 0 -18 0" />
    <path d="M9 12l2 2l4 -4" />
  </g>
    <text x="696" y="189" font-family="SimHei, &quot;Microsoft YaHei&quot;, Arial, sans-serif" font-size="15" font-weight="bold" fill="#93A0B0">03</text>
    <text x="666" y="232" font-family="&quot;Microsoft YaHei&quot;, &quot;PingFang SC&quot;, Arial, sans-serif" font-size="17" fill="#1A2230">报修建单 · SN / 地址</text>
    <rect x="936" y="150" width="272" height="113" fill="#F4F7FB"/>
    <!-- icon: tabler-outline/circle-check -->
  <g transform="translate(954, 172) scale(0.916667)" fill="none" stroke="#2E7D32" stroke-width="2">
    <path d="M3 12a9 9 0 1 0 18 0a9 9 0 1 0 -18 0" />
    <path d="M9 12l2 2l4 -4" />
  </g>
    <text x="984" y="189" font-family="SimHei, &quot;Microsoft YaHei&quot;, Arial, sans-serif" font-size="15" font-weight="bold" fill="#93A0B0">04</text>
    <text x="954" y="232" font-family="&quot;Microsoft YaHei&quot;, &quot;PingFang SC&quot;, Arial, sans-serif" font-size="17" fill="#1A2230">报修上传图片</text>
  </g>
  <g id="func-row-2">
    <rect x="72" y="279" width="272" height="113" fill="#F4F7FB"/>
    <!-- icon: tabler-outline/circle-check -->
  <g transform="translate(90, 301) scale(0.916667)" fill="none" stroke="#2E7D32" stroke-width="2">
    <path d="M3 12a9 9 0 1 0 18 0a9 9 0 1 0 -18 0" />
    <path d="M9 12l2 2l4 -4" />
  </g>
    <text x="120" y="318" font-family="SimHei, &quot;Microsoft YaHei&quot;, Arial, sans-serif" font-size="15" font-weight="bold" fill="#93A0B0">05</text>
    <text x="90" y="361" font-family="&quot;Microsoft YaHei&quot;, &quot;PingFang SC&quot;, Arial, sans-serif" font-size="17" fill="#1A2230">订单进度 / 状态</text>
    <rect x="360" y="279" width="272" height="113" fill="#F4F7FB"/>
    <!-- icon: tabler-outline/circle-check -->
  <g transform="translate(378, 301) scale(0.916667)" fill="none" stroke="#2E7D32" stroke-width="2">
    <path d="M3 12a9 9 0 1 0 18 0a9 9 0 1 0 -18 0" />
    <path d="M9 12l2 2l4 -4" />
  </g>
    <text x="408" y="318" font-family="SimHei, &quot;Microsoft YaHei&quot;, Arial, sans-serif" font-size="15" font-weight="bold" fill="#93A0B0">06</text>
    <text x="378" y="361" font-family="&quot;Microsoft YaHei&quot;, &quot;PingFang SC&quot;, Arial, sans-serif" font-size="17" fill="#1A2230">报价确认 / 拒绝</text>
    <rect x="648" y="279" width="272" height="113" fill="#F4F7FB"/>
    <!-- icon: tabler-outline/circle-check -->
  <g transform="translate(666, 301) scale(0.916667)" fill="none" stroke="#2E7D32" stroke-width="2">
    <path d="M3 12a9 9 0 1 0 18 0a9 9 0 1 0 -18 0" />
    <path d="M9 12l2 2l4 -4" />
  </g>
    <text x="696" y="318" font-family="SimHei, &quot;Microsoft YaHei&quot;, Arial, sans-serif" font-size="15" font-weight="bold" fill="#93A0B0">07</text>
    <text x="666" y="361" font-family="&quot;Microsoft YaHei&quot;, &quot;PingFang SC&quot;, Arial, sans-serif" font-size="17" fill="#1A2230">微信支付</text>
    <rect x="936" y="279" width="272" height="113" fill="#F4F7FB"/>
    <!-- icon: tabler-outline/circle-check -->
  <g transform="translate(954, 301) scale(0.916667)" fill="none" stroke="#2E7D32" stroke-width="2">
    <path d="M3 12a9 9 0 1 0 18 0a9 9 0 1 0 -18 0" />
    <path d="M9 12l2 2l4 -4" />
  </g>
    <text x="984" y="318" font-family="SimHei, &quot;Microsoft YaHei&quot;, Arial, sans-serif" font-size="15" font-weight="bold" fill="#93A0B0">08</text>
    <text x="954" y="361" font-family="&quot;Microsoft YaHei&quot;, &quot;PingFang SC&quot;, Arial, sans-serif" font-size="17" fill="#1A2230">对公凭证上传</text>
  </g>
  <g id="func-row-3">
    <rect x="72" y="408" width="272" height="113" fill="#F4F7FB"/>
    <!-- icon: tabler-outline/circle-check -->
  <g transform="translate(90, 430) scale(0.916667)" fill="none" stroke="#2E7D32" stroke-width="2">
    <path d="M3 12a9 9 0 1 0 18 0a9 9 0 1 0 -18 0" />
    <path d="M9 12l2 2l4 -4" />
  </g>
    <text x="120" y="447" font-family="SimHei, &quot;Microsoft YaHei&quot;, Arial, sans-serif" font-size="15" font-weight="bold" fill="#93A0B0">09</text>
    <text x="90" y="490" font-family="&quot;Microsoft YaHei&quot;, &quot;PingFang SC&quot;, Arial, sans-serif" font-size="17" fill="#1A2230">发票申请</text>
    <rect x="360" y="408" width="272" height="113" fill="#F4F7FB"/>
    <!-- icon: tabler-outline/circle-check -->
  <g transform="translate(378, 430) scale(0.916667)" fill="none" stroke="#2E7D32" stroke-width="2">
    <path d="M3 12a9 9 0 1 0 18 0a9 9 0 1 0 -18 0" />
    <path d="M9 12l2 2l4 -4" />
  </g>
    <text x="408" y="447" font-family="SimHei, &quot;Microsoft YaHei&quot;, Arial, sans-serif" font-size="15" font-weight="bold" fill="#93A0B0">10</text>
    <text x="378" y="490" font-family="&quot;Microsoft YaHei&quot;, &quot;PingFang SC&quot;, Arial, sans-serif" font-size="17" fill="#1A2230">确认收货</text>
    <rect x="648" y="408" width="272" height="113" fill="#F4F7FB"/>
    <!-- icon: tabler-outline/circle-check -->
  <g transform="translate(666, 430) scale(0.916667)" fill="none" stroke="#2E7D32" stroke-width="2">
    <path d="M3 12a9 9 0 1 0 18 0a9 9 0 1 0 -18 0" />
    <path d="M9 12l2 2l4 -4" />
  </g>
    <text x="696" y="447" font-family="SimHei, &quot;Microsoft YaHei&quot;, Arial, sans-serif" font-size="15" font-weight="bold" fill="#93A0B0">11</text>
    <text x="666" y="490" font-family="&quot;Microsoft YaHei&quot;, &quot;PingFang SC&quot;, Arial, sans-serif" font-size="17" fill="#1A2230">评价 / 回访</text>
    <rect x="936" y="408" width="272" height="113" fill="#F4F7FB"/>
    <!-- icon: tabler-outline/circle-check -->
  <g transform="translate(954, 430) scale(0.916667)" fill="none" stroke="#2E7D32" stroke-width="2">
    <path d="M3 12a9 9 0 1 0 18 0a9 9 0 1 0 -18 0" />
    <path d="M9 12l2 2l4 -4" />
  </g>
    <text x="984" y="447" font-family="SimHei, &quot;Microsoft YaHei&quot;, Arial, sans-serif" font-size="15" font-weight="bold" fill="#93A0B0">12</text>
    <text x="954" y="490" font-family="&quot;Microsoft YaHei&quot;, &quot;PingFang SC&quot;, Arial, sans-serif" font-size="17" fill="#1A2230">投诉 / 建议</text>
  </g>
  <g id="func-row-4">
    <rect x="72" y="537" width="272" height="113" fill="#F4F7FB"/>
    <!-- icon: tabler-outline/circle-check -->
  <g transform="translate(90, 559) scale(0.916667)" fill="none" stroke="#2E7D32" stroke-width="2">
    <path d="M3 12a9 9 0 1 0 18 0a9 9 0 1 0 -18 0" />
    <path d="M9 12l2 2l4 -4" />
  </g>
    <text x="120" y="576" font-family="SimHei, &quot;Microsoft YaHei&quot;, Arial, sans-serif" font-size="15" font-weight="bold" fill="#93A0B0">13</text>
    <text x="90" y="619" font-family="&quot;Microsoft YaHei&quot;, &quot;PingFang SC&quot;, Arial, sans-serif" font-size="17" fill="#1A2230">订阅消息授权</text>
    <rect x="360" y="537" width="272" height="113" fill="#F4F7FB"/>
    <!-- icon: tabler-outline/circle-check -->
  <g transform="translate(378, 559) scale(0.916667)" fill="none" stroke="#2E7D32" stroke-width="2">
    <path d="M3 12a9 9 0 1 0 18 0a9 9 0 1 0 -18 0" />
    <path d="M9 12l2 2l4 -4" />
  </g>
    <text x="408" y="576" font-family="SimHei, &quot;Microsoft YaHei&quot;, Arial, sans-serif" font-size="15" font-weight="bold" fill="#93A0B0">14</text>
    <text x="378" y="619" font-family="&quot;Microsoft YaHei&quot;, &quot;PingFang SC&quot;, Arial, sans-serif" font-size="17" fill="#1A2230">设备档案页</text>
    <rect x="648" y="537" width="272" height="113" fill="#F4F7FB"/>
    <!-- icon: tabler-outline/circle-check -->
  <g transform="translate(666, 559) scale(0.916667)" fill="none" stroke="#2E7D32" stroke-width="2">
    <path d="M3 12a9 9 0 1 0 18 0a9 9 0 1 0 -18 0" />
    <path d="M9 12l2 2l4 -4" />
  </g>
    <text x="696" y="576" font-family="SimHei, &quot;Microsoft YaHei&quot;, Arial, sans-serif" font-size="15" font-weight="bold" fill="#93A0B0">15</text>
    <text x="666" y="619" font-family="&quot;Microsoft YaHei&quot;, &quot;PingFang SC&quot;, Arial, sans-serif" font-size="17" fill="#1A2230">隐私授权弹窗</text>
    <rect x="936" y="537" width="272" height="113" fill="#F4F7FB"/>
    <!-- icon: tabler-outline/circle-check -->
  <g transform="translate(954, 559) scale(0.916667)" fill="none" stroke="#2E7D32" stroke-width="2">
    <path d="M3 12a9 9 0 1 0 18 0a9 9 0 1 0 -18 0" />
    <path d="M9 12l2 2l4 -4" />
  </g>
    <text x="984" y="576" font-family="SimHei, &quot;Microsoft YaHei&quot;, Arial, sans-serif" font-size="15" font-weight="bold" fill="#93A0B0">16</text>
    <text x="954" y="619" font-family="&quot;Microsoft YaHei&quot;, &quot;PingFang SC&quot;, Arial, sans-serif" font-size="17" fill="#1A2230">账号注销 · 脱敏</text>
  </g>
  <g id="p05-footnote">
    <text x="72" y="676" font-family="&quot;Microsoft YaHei&quot;, &quot;PingFang SC&quot;, Arial, sans-serif" font-size="13" fill="#93A0B0">代码侧待确认（非编码缺口）：客服热线 0757-85775667 待确认、客户可见资质 / 资料正式版本。</text>
  </g>
  <g id="p05-footer">
    <text x="72" y="702" font-family="&quot;Microsoft YaHei&quot;, &quot;PingFang SC&quot;, Arial, sans-serif" font-size="11" fill="#93A0B0">牙医仪器检修小程序 · 项目进度汇报</text>
    <text x="1208" y="702" text-anchor="end" font-family="&quot;Microsoft YaHei&quot;, &quot;PingFang SC&quot;, Arial, sans-serif" font-size="11" fill="#93A0B0">2026-06-22 · P05 / 12</text>
  </g>
</svg>
