<svg xmlns="http://www.w3.org/2000/svg" width="1280" height="720" viewBox="0 0 1280 720">
  <g id="bg">
    <rect x="0" y="0" width="1280" height="720" fill="#FFFFFF" />
    <rect x="0" y="0" width="10" height="720" fill="#D32F2F" />
  </g>
  <g id="blocker-title">
    
  <g transform="translate(72, 132) scale(3)" fill="none" stroke="#D32F2F" stroke-width="2">
    <path d="M12 9v4" />
    <path d="M10.363 3.591l-8.106 13.534a1.914 1.914 0 0 0 1.636 2.871h16.214a1.914 1.914 0 0 0 1.636 -2.87l-8.106 -13.536a1.914 1.914 0 0 0 -3.274 0" />
    <path d="M12 16h.01" />
  </g>
    <text x="168" y="160" font-family="SimHei, &quot;Microsoft YaHei&quot;, Arial, sans-serif" font-size="18" letter-spacing="1" fill="#D32F2F">阻断项 B1 · 发布前置阻断（未关闭不得提审）</text>
    <text x="166" y="214" font-family="SimHei, &quot;Microsoft YaHei&quot;, Arial, sans-serif" font-size="40" font-weight="bold" fill="#1A2230">医疗器械类目审核未通过</text>
  </g>
  <g id="blocker-panel">
    <rect x="72" y="290" width="1136" height="338" fill="#F4F7FB" />
    <rect x="72" y="290" width="6" height="338" fill="#D32F2F" />
    <text x="120" y="346" font-family="SimHei, &quot;Microsoft YaHei&quot;, Arial, sans-serif" font-size="16" font-weight="bold" fill="#93A0B0">阻塞原因</text>
    <text x="340" y="346" font-family="&quot;Microsoft YaHei&quot;, &quot;PingFang SC&quot;, Arial, sans-serif" font-size="19" fill="#1A2230">微信公众平台「类目管理」中，医疗器械类目资质审核未通过。</text>
    <line x1="120" y1="372" x2="1160" y2="372" stroke="#E5EAF0" stroke-width="1" />
    <text x="120" y="418" font-family="SimHei, &quot;Microsoft YaHei&quot;, Arial, sans-serif" font-size="16" font-weight="bold" fill="#93A0B0">下一步动作</text>
    <text font-family="&quot;Microsoft YaHei&quot;, &quot;PingFang SC&quot;, Arial, sans-serif" fill="#1A2230" font-size="19" x="340" y="418">补齐《医疗器械生产许可证》《互联网信息服务备案凭证》等资质，</text><text font-family="&quot;Microsoft YaHei&quot;, &quot;PingFang SC&quot;, Arial, sans-serif" fill="#1A2230" font-size="19" x="340" y="448">在「类目管理」重新提交审核。</text><line x1="120" y1="486" x2="1160" y2="486" stroke="#E5EAF0" stroke-width="1" />
    <text x="120" y="532" font-family="SimHei, &quot;Microsoft YaHei&quot;, Arial, sans-serif" font-size="16" font-weight="bold" fill="#93A0B0">负责人</text>
    <text x="340" y="532" font-family="&quot;Microsoft YaHei&quot;, &quot;PingFang SC&quot;, Arial, sans-serif" font-size="19" fill="#1A2230">吴彤彤（依赖客户提供资质证照）</text>
    <line x1="120" y1="558" x2="1160" y2="558" stroke="#E5EAF0" stroke-width="1" />
    <text x="120" y="604" font-family="SimHei, &quot;Microsoft YaHei&quot;, Arial, sans-serif" font-size="16" font-weight="bold" fill="#93A0B0">预计完成</text>
    <text x="340" y="604" font-family="SimHei, &quot;Microsoft YaHei&quot;, Arial, sans-serif" font-size="19" font-weight="bold" fill="#D32F2F">待定（卡发布）</text>
  </g>
  <g id="p08-footer">
    <text x="72" y="702" font-family="&quot;Microsoft YaHei&quot;, &quot;PingFang SC&quot;, Arial, sans-serif" font-size="11" fill="#93A0B0">牙医仪器检修小程序 · 项目进度汇报</text>
    <text x="1208" y="702" text-anchor="end" font-family="&quot;Microsoft YaHei&quot;, &quot;PingFang SC&quot;, Arial, sans-serif" font-size="11" fill="#93A0B0">2026-06-22 · P08 / 12</text>
  </g>
</svg>