<svg xmlns="http://www.w3.org/2000/svg" width="1280" height="720" viewBox="0 0 1280 720">
  <g id="bg">
    <rect x="0" y="0" width="1280" height="720" fill="#FFFFFF" />
    <rect x="0" y="0" width="10" height="720" fill="#1565C0" />
  </g>
  <g id="closing-kicker">
    <rect x="72" y="120" width="34" height="4" fill="#1565C0" />
    <text x="118" y="128" font-family="SimHei, &quot;Microsoft YaHei&quot;, Arial, sans-serif" font-size="17" letter-spacing="3" fill="#1565C0">上线判定 · 收尾 · FINAL CALL</text>
  </g>
  <g id="closing-statement">
    <text x="70" y="262" font-family="SimHei, &quot;Microsoft YaHei&quot;, Arial, sans-serif" font-size="56" font-weight="bold" fill="#1A2230">门槛未清零，不提审</text>
    <rect x="72" y="298" width="160" height="5" fill="#0D3B66" />
  </g>
  <g id="verdict-panel">
    <rect x="72" y="358" width="1136" height="150" fill="#F4F7FB" />
    <rect x="72" y="358" width="6" height="150" fill="#0D3B66" />
    
  <g transform="translate(112, 396) scale(1.66667)" fill="none" stroke="#0D3B66" stroke-width="2">
    <path d="M12 3a12 12 0 0 0 8.5 3a12 12 0 0 1 -8.5 15a12 12 0 0 1 -8.5 -15a12 12 0 0 0 8.5 -3" />
  </g>
    <text x="172" y="408" font-family="SimHei, &quot;Microsoft YaHei&quot;, Arial, sans-serif" font-size="16" font-weight="bold" fill="#93A0B0">上线判定规则</text>
    <text font-family="&quot;Microsoft YaHei&quot;, &quot;PingFang SC&quot;, Arial, sans-serif" fill="#1A2230" font-size="19" x="172" y="444">任一最低上线门槛未过，原则上不得提审；有条件上线须由吴彤彤在《最终上线确认单》</text><text font-family="&quot;Microsoft YaHei&quot;, &quot;PingFang SC&quot;, Arial, sans-serif" fill="#1A2230" font-size="19" x="172" y="476">写明风险、兜底方案、负责人、预计修复时间。</text></g>
  <g id="closing-line">
    <text x="72" y="592" font-family="SimHei, &quot;Microsoft YaHei&quot;, Arial, sans-serif" font-size="34" font-weight="bold" fill="#1565C0">开发已就位，决胜在配置与审核。</text>
  </g>
  <g id="p12-footer">
    <text x="72" y="702" font-family="&quot;Microsoft YaHei&quot;, &quot;PingFang SC&quot;, Arial, sans-serif" font-size="11" fill="#93A0B0">牙医仪器检修小程序 · 项目进度汇报 · 统计 2026-06-22</text>
    <text x="1208" y="702" text-anchor="end" font-family="&quot;Microsoft YaHei&quot;, &quot;PingFang SC&quot;, Arial, sans-serif" font-size="11" fill="#93A0B0">2026-06-22 · P12 / 12</text>
  </g>
</svg>